<svg version="1.1" id="Layer_1" xmlns="http://www.w3.org/2000/svg" xmlns:xlink="http://www.w3.org/1999/xlink" x="0px" y="0px"
	 width="100%" viewBox="0 0 192 76" enable-background="new 0 0 192 76" xml:space="preserve">
<path fill="#FCFCFC" opacity="1.000000" stroke="none" 
	d="
M131.000000,77.000000 
	C87.333344,77.000000 44.166687,77.000000 1.000023,77.000000 
	C1.000015,51.666683 1.000015,26.333366 1.000008,1.000037 
	C64.999969,1.000025 128.999939,1.000025 192.999939,1.000012 
	C192.999954,26.333296 192.999954,51.666592 192.999969,76.999939 
	C172.500000,77.000000 152.000000,77.000000 131.000000,77.000000 
M151.368774,39.506210 
	C148.601013,39.506210 145.833267,39.506210 144.307266,39.506210 
	C141.033524,36.859047 145.331863,31.743328 139.300919,31.071102 
	C139.154984,34.133343 139.031845,36.717075 138.887100,39.754330 
	C133.515930,39.754330 128.603531,39.754330 123.631149,39.754330 
	C123.631149,49.372692 123.631149,58.499718 123.631149,67.691498 
	C135.370804,64.270241 146.948135,64.280357 158.566284,67.656418 
	C158.566284,58.304325 158.566284,49.082970 158.566284,39.506279 
	C156.276550,39.506279 154.302551,39.506279 151.368774,39.506210 
M11.814384,66.061653 
	C13.252275,66.075638 14.942704,66.592743 16.085623,66.019066 
	C21.952724,63.074123 25.356884,58.056915 26.927921,51.794254 
	C27.723297,48.623627 28.227575,45.379978 28.839087,42.292419 
	C32.264816,42.292419 35.365112,42.292419 38.810814,42.292419 
	C38.810814,46.677715 38.810780,50.810394 38.810818,54.943077 
	C38.810940,67.395828 39.294678,67.848007 51.737961,67.027298 
	C52.235996,66.994446 52.748955,67.027710 53.229755,66.918846 
	C57.526375,65.945930 57.646324,62.332569 57.842949,59.060036 
	C57.934586,57.534935 56.987904,55.947449 56.511864,54.388241 
	C53.367653,64.178314 52.956043,64.438522 42.633545,62.514812 
	C42.633545,55.846802 42.633545,49.114578 42.633545,41.986824 
	C47.458714,41.986824 52.231312,41.986824 57.003910,41.986824 
	C57.276218,41.533291 57.548527,41.079762 57.820835,40.626228 
	C56.802917,39.800404 55.793255,38.267643 54.765835,38.255646 
	C41.106621,38.096153 27.444162,38.091621 13.785382,38.269211 
	C12.772917,38.282375 11.782438,39.986553 10.781738,40.904598 
	C11.120061,41.290657 11.458385,41.676720 11.796708,42.062778 
	C15.934796,42.062778 20.072886,42.062778 24.474241,42.062778 
	C24.046757,51.668552 21.550930,59.703957 12.266586,64.038071 
	C11.833238,64.240364 11.656069,64.991440 11.814384,66.061653 
M102.516472,38.242085 
	C101.824020,37.151741 101.152985,35.128792 100.435875,35.112324 
	C91.149109,34.899036 81.855789,34.971050 72.191780,34.971050 
	C72.191780,36.108486 72.082436,37.527843 72.207588,37.548832 
	C76.701027,38.302349 81.216370,38.925285 85.588425,39.546463 
	C85.588425,41.990086 85.588425,44.266186 85.588425,47.012650 
	C78.632439,47.012650 71.881645,47.012650 65.130844,47.012650 
	C65.015961,47.784779 64.901077,48.556908 64.786194,49.329033 
	C71.092400,53.048470 78.861931,49.299706 85.482285,51.352573 
	C85.482285,55.544861 85.482285,59.609283 85.482285,64.034561 
	C82.235336,64.034561 79.310173,64.034561 76.294243,64.034561 
	C77.055161,69.433380 80.705711,67.764091 83.607567,67.536980 
	C86.673470,67.297012 89.774475,66.939362 89.732338,62.666645 
	C89.695030,58.883888 89.724518,55.100471 89.724518,50.855488 
	C95.752251,50.855488 101.367393,50.790237 106.979935,50.882725 
	C109.830635,50.929707 111.053520,50.093868 109.436935,46.780136 
	C103.024269,46.780136 96.435562,46.780136 90.056862,46.780136 
	C90.056862,43.934608 90.056862,41.519821 90.056862,38.740936 
	C94.183540,38.740936 97.987320,38.740936 102.516472,38.242085 
M68.671997,24.976690 
	C66.042709,24.604588 64.645569,25.345570 64.934212,28.398384 
	C65.193283,31.138525 64.988777,33.922497 64.988777,37.073380 
	C71.338997,36.147354 66.698166,30.853123 69.449181,28.787287 
	C81.444672,28.787287 93.665131,28.787287 105.844452,28.787287 
	C106.774155,36.318897 106.774155,36.318897 109.575432,36.473576 
	C109.575432,32.734089 109.575432,29.004740 109.575432,25.018812 
	C102.978111,25.018812 96.680099,25.018812 91.043839,25.018812 
	C88.437332,23.403414 88.988258,18.138657 84.256798,20.780914 
	C84.632469,22.161142 84.960464,23.366245 85.398781,24.976646 
	C79.878990,24.976646 74.757454,24.976646 68.671997,24.976690 
M158.988663,29.598938 
	C159.030319,30.927439 158.829590,32.326847 159.190872,33.561844 
	C159.476074,34.536766 160.452591,35.309452 161.122086,36.171959 
	C161.655289,35.327648 162.577759,34.514469 162.648270,33.633144 
	C162.854660,31.052811 162.721695,28.445333 162.721695,25.502317 
	C157.634216,25.502317 153.160324,25.332701 148.706909,25.561556 
	C145.705048,25.715815 143.749237,25.034986 142.488876,22.015596 
	C141.981552,20.800196 140.007004,20.197231 138.700226,19.315536 
	C138.423859,19.720135 138.147507,20.124735 137.871155,20.529335 
	C138.297974,22.024179 138.724792,23.519026 139.321259,25.608019 
	C132.412598,25.608019 125.996368,25.608019 119.274658,25.608019 
	C119.274658,27.416140 119.044258,28.776497 119.326332,30.020670 
	C119.800156,32.110634 120.599976,34.126682 121.262634,36.173832 
	C121.822319,34.185570 122.375748,32.195499 122.948692,30.211063 
	C123.031204,29.925278 123.207703,29.666628 123.485977,29.099209 
	C134.953323,29.099209 146.567154,29.099209 158.988663,29.598938 
M22.600687,23.145144 
	C16.124517,23.146332 16.124517,23.146332 16.298239,26.833328 
	C28.350323,26.833328 40.406208,26.833328 52.577843,26.833328 
	C53.519032,23.693762 52.163269,23.067244 49.450840,23.103281 
	C40.829346,23.217827 32.205364,23.145350 22.600687,23.145144 
z"/>
<path fill="#111111" opacity="1.000000" stroke="none" 
	d="
M151.848663,39.506245 
	C154.302551,39.506279 156.276550,39.506279 158.566284,39.506279 
	C158.566284,49.082970 158.566284,58.304325 158.566284,67.656418 
	C146.948135,64.280357 135.370804,64.270241 123.631149,67.691498 
	C123.631149,58.499718 123.631149,49.372692 123.631149,39.754330 
	C128.603531,39.754330 133.515930,39.754330 138.887100,39.754330 
	C139.031845,36.717075 139.154984,34.133343 139.300919,31.071102 
	C145.331863,31.743328 141.033524,36.859047 144.307266,39.506210 
	C145.833267,39.506210 148.601013,39.506210 151.848663,39.506245 
M132.551270,43.008751 
	C130.774612,43.008751 128.997971,43.008751 127.249077,43.008751 
	C127.249077,45.849579 127.249077,48.104877 127.249077,50.558189 
	C131.247147,50.558189 134.983917,50.558189 138.931396,50.558189 
	C138.931396,48.035549 138.931396,45.773819 138.931396,43.008751 
	C137.080490,43.008751 135.288544,43.008751 132.551270,43.008751 
M151.419250,43.015102 
	C148.633286,43.015102 145.847305,43.015102 143.067566,43.015102 
	C143.067566,45.802326 143.067566,48.158695 143.067566,50.441643 
	C147.308899,50.441643 151.172180,50.441643 155.655975,50.441643 
	C153.960297,47.789146 158.228912,43.517960 151.419250,43.015102 
M131.600952,61.975925 
	C134.039612,61.975925 136.478287,61.975925 138.789108,61.975925 
	C138.789108,59.007477 138.789108,56.621346 138.789108,54.328308 
	C134.709564,54.328308 130.967194,54.328308 125.790764,54.328308 
	C128.902847,56.834370 123.532791,62.321560 131.600952,61.975925 
M142.860352,61.379543 
	C146.896637,61.635914 150.932907,61.892288 154.994019,62.150238 
	C154.994019,59.089546 154.994019,56.706902 154.994019,54.279621 
	C150.803101,54.279621 146.895828,54.279621 142.742783,54.279621 
	C142.742783,56.489178 142.742783,58.451611 142.860352,61.379543 
z"/>
<path fill="#121212" opacity="1.000000" stroke="none" 
	d="
M11.586987,65.774292 
	C11.656069,64.991440 11.833238,64.240364 12.266586,64.038071 
	C21.550930,59.703957 24.046757,51.668552 24.474241,42.062778 
	C20.072886,42.062778 15.934796,42.062778 11.796708,42.062778 
	C11.458385,41.676720 11.120061,41.290657 10.781738,40.904598 
	C11.782438,39.986553 12.772917,38.282375 13.785382,38.269211 
	C27.444162,38.091621 41.106621,38.096153 54.765835,38.255646 
	C55.793255,38.267643 56.802917,39.800404 57.820835,40.626228 
	C57.548527,41.079762 57.276218,41.533291 57.003910,41.986824 
	C52.231312,41.986824 47.458714,41.986824 42.633545,41.986824 
	C42.633545,49.114578 42.633545,55.846802 42.633545,62.514812 
	C52.956043,64.438522 53.367653,64.178314 56.511864,54.388241 
	C56.987904,55.947449 57.934586,57.534935 57.842949,59.060036 
	C57.646324,62.332569 57.526375,65.945930 53.229755,66.918846 
	C52.748955,67.027710 52.235996,66.994446 51.737961,67.027298 
	C39.294678,67.848007 38.810940,67.395828 38.810818,54.943077 
	C38.810780,50.810394 38.810814,46.677715 38.810814,42.292419 
	C35.365112,42.292419 32.264816,42.292419 28.839087,42.292419 
	C28.227575,45.379978 27.723297,48.623627 26.927921,51.794254 
	C25.356884,58.056915 21.952724,63.074123 16.085623,66.019066 
	C14.942704,66.592743 13.252275,66.075638 11.586987,65.774292 
z"/>
<path fill="#141414" opacity="1.000000" stroke="none" 
	d="
M102.153786,38.491508 
	C97.987320,38.740936 94.183540,38.740936 90.056862,38.740936 
	C90.056862,41.519821 90.056862,43.934608 90.056862,46.780136 
	C96.435562,46.780136 103.024269,46.780136 109.436935,46.780136 
	C111.053520,50.093868 109.830635,50.929707 106.979935,50.882725 
	C101.367393,50.790237 95.752251,50.855488 89.724518,50.855488 
	C89.724518,55.100471 89.695030,58.883888 89.732338,62.666645 
	C89.774475,66.939362 86.673470,67.297012 83.607567,67.536980 
	C80.705711,67.764091 77.055161,69.433380 76.294243,64.034561 
	C79.310173,64.034561 82.235336,64.034561 85.482285,64.034561 
	C85.482285,59.609283 85.482285,55.544861 85.482285,51.352573 
	C78.861931,49.299706 71.092400,53.048470 64.786194,49.329033 
	C64.901077,48.556908 65.015961,47.784779 65.130844,47.012650 
	C71.881645,47.012650 78.632439,47.012650 85.588425,47.012650 
	C85.588425,44.266186 85.588425,41.990086 85.588425,39.546463 
	C81.216370,38.925285 76.701027,38.302349 72.207588,37.548832 
	C72.082436,37.527843 72.191780,36.108486 72.191780,34.971050 
	C81.855789,34.971050 91.149109,34.899036 100.435875,35.112324 
	C101.152985,35.128792 101.824020,37.151741 102.153786,38.491508 
z"/>
<path fill="#0F0F0F" opacity="1.000000" stroke="none" 
	d="
M69.153961,24.976669 
	C74.757454,24.976646 79.878990,24.976646 85.398781,24.976646 
	C84.960464,23.366245 84.632469,22.161142 84.256798,20.780914 
	C88.988258,18.138657 88.437332,23.403414 91.043839,25.018812 
	C96.680099,25.018812 102.978111,25.018812 109.575432,25.018812 
	C109.575432,29.004740 109.575432,32.734089 109.575432,36.473576 
	C106.774155,36.318897 106.774155,36.318897 105.844452,28.787287 
	C93.665131,28.787287 81.444672,28.787287 69.449181,28.787287 
	C66.698166,30.853123 71.338997,36.147354 64.988777,37.073380 
	C64.988777,33.922497 65.193283,31.138525 64.934212,28.398384 
	C64.645569,25.345570 66.042709,24.604588 69.153961,24.976669 
z"/>
<path fill="#121212" opacity="1.000000" stroke="none" 
	d="
M158.584839,29.349073 
	C146.567154,29.099209 134.953323,29.099209 123.485977,29.099209 
	C123.207703,29.666628 123.031204,29.925278 122.948692,30.211063 
	C122.375748,32.195499 121.822319,34.185570 121.262634,36.173832 
	C120.599976,34.126682 119.800156,32.110634 119.326332,30.020670 
	C119.044258,28.776497 119.274658,27.416140 119.274658,25.608019 
	C125.996368,25.608019 132.412598,25.608019 139.321259,25.608019 
	C138.724792,23.519026 138.297974,22.024179 137.871155,20.529335 
	C138.147507,20.124735 138.423859,19.720135 138.700226,19.315536 
	C140.007004,20.197231 141.981552,20.800196 142.488876,22.015596 
	C143.749237,25.034986 145.705048,25.715815 148.706909,25.561556 
	C153.160324,25.332701 157.634216,25.502317 162.721695,25.502317 
	C162.721695,28.445333 162.854660,31.052811 162.648270,33.633144 
	C162.577759,34.514469 161.655289,35.327648 161.122086,36.171959 
	C160.452591,35.309452 159.476074,34.536766 159.190872,33.561844 
	C158.829590,32.326847 159.030319,30.927439 158.584839,29.349073 
z"/>
<path fill="#131313" opacity="1.000000" stroke="none" 
	d="
M23.091516,23.145145 
	C32.205364,23.145350 40.829346,23.217827 49.450840,23.103281 
	C52.163269,23.067244 53.519032,23.693762 52.577843,26.833328 
	C40.406208,26.833328 28.350323,26.833328 16.298239,26.833328 
	C16.124517,23.146332 16.124517,23.146332 23.091516,23.145145 
z"/>
<path fill="#F2F2F2" opacity="1.000000" stroke="none" 
	d="
M133.023941,43.008751 
	C135.288544,43.008751 137.080490,43.008751 138.931396,43.008751 
	C138.931396,45.773819 138.931396,48.035549 138.931396,50.558189 
	C134.983917,50.558189 131.247147,50.558189 127.249077,50.558189 
	C127.249077,48.104877 127.249077,45.849579 127.249077,43.008751 
	C128.997971,43.008751 130.774612,43.008751 133.023941,43.008751 
z"/>
<path fill="#F6F6F6" opacity="1.000000" stroke="none" 
	d="
M151.906525,43.015278 
	C158.228912,43.517960 153.960297,47.789146 155.655975,50.441643 
	C151.172180,50.441643 147.308899,50.441643 143.067566,50.441643 
	C143.067566,48.158695 143.067566,45.802326 143.067566,43.015102 
	C145.847305,43.015102 148.633286,43.015102 151.906525,43.015278 
z"/>
<path fill="#FAFAFA" opacity="1.000000" stroke="none" 
	d="
M131.130798,61.975903 
	C123.532791,62.321560 128.902847,56.834370 125.790764,54.328308 
	C130.967194,54.328308 134.709564,54.328308 138.789108,54.328308 
	C138.789108,56.621346 138.789108,59.007477 138.789108,61.975925 
	C136.478287,61.975925 134.039612,61.975925 131.130798,61.975903 
z"/>
<path fill="#FEFEFE" opacity="1.000000" stroke="none" 
	d="
M142.801575,60.896790 
	C142.742783,58.451611 142.742783,56.489178 142.742783,54.279621 
	C146.895828,54.279621 150.803101,54.279621 154.994019,54.279621 
	C154.994019,56.706902 154.994019,59.089546 154.994019,62.150238 
	C150.932907,61.892288 146.896637,61.635914 142.801575,60.896790 
z"/>
</svg>